<mxfile host="app.diagrams.net" modified="2024-04-25T18:04:01.485Z" agent="Mozilla/5.0 (X11; Linux x86_64) AppleWebKit/537.36 (KHTML, like Gecko) Chrome/124.0.0.0 Safari/537.36" version="24.3.0" etag="ck86-SuIimwcyiBkRD6t" type="github">
  <diagram name="PÃ¡gina-1" id="fcruw6be8xkfHRI48XbZ">
    <mxGraphModel>
      <root>
        <mxCell id="0" />
        <mxCell id="1" parent="0" />
      </root>
    </mxGraphModel>
  </diagram>
</mxfile>
